<?xml version="1.0" encoding="UTF-8" standalone="no"?>
<svg width="268px" height="268px" viewBox="0 0 268 268" version="1.1" xmlns="http://www.w3.org/2000/svg" xmlns:xlink="http://www.w3.org/1999/xlink" xmlns:sketch="http://www.bohemiancoding.com/sketch/ns">
    <title>Slice 1</title>
    <description>Created with Sketch (http://www.bohemiancoding.com/sketch)</description>
    <defs></defs>
    <g id="Page-1" stroke="none" stroke-width="1" fill="none" fill-rule="evenodd" sketch:type="MSPage">
        <g id="building" sketch:type="MSLayerGroup">
            <g id="Layer%201" sketch:type="MSShapeGroup">
                <path d="M268,134 C268,208.006482 208.006138,268 134,268 C59.9938615,268 0,208.006482 0,134 C0,59.9935179 59.9938615,0 134,0 C208.006138,0 268,59.9935179 268,134 C268,134 268,59.9935179 268,134 L268,134 L268,134 Z M268,134" id="Shape" fill="#8B877D"></path>
                <path d="M217.878863,96.1928456 C203.906723,59.4361439 167.21713,37.2063963 126.253573,41.5360643 C95.3251842,44.8058817 69.7773353,63.6432838 56.5479545,89.3985445 C53.2192894,95.8791463 50.6564236,102.790484 49,110.010716 L77.7647562,115.701578 C77.9480391,114.953024 78.1457645,114.208932 78.3575887,113.470332 C78.5367451,112.844992 78.7300003,112.224801 78.9287574,111.607356 C79.8107849,108.876731 80.887443,106.227104 82.1432575,103.673578 C90.8596836,85.9224544 108.233734,72.8709852 129.341872,70.6397389 C155.702975,67.8531694 179.917982,82.7779108 190.090355,105.783669 C189.911543,106.408665 189.718288,107.028856 189.519187,107.646302 L181.495659,112.897848 L186.30503,115.580079 L211.899989,129.855456 L217.538432,133 L228,92.6542901 L217.878863,96.1928456 L217.878863,96.1928456 L217.878863,96.1928456 L217.878863,96.1928456 Z M217.878863,96.1928456" id="Shape" fill="#E1DFD1"></path>
                <path d="M55.1211171,172.80726 C69.093231,209.564068 105.783097,231.793879 146.746232,227.463856 C177.674561,224.194372 203.222705,205.356916 216.451716,179.601581 C219.780719,173.12096 222.343236,166.209603 224,158.98935 L195.234955,153.298129 C195.051673,154.047028 194.853948,154.790779 194.642124,155.529725 C194.463312,156.154722 194.270057,156.774915 194.070956,157.392362 C193.18893,160.123339 192.112274,162.77263 190.856806,165.326163 C182.140397,183.077681 164.766036,196.128845 143.657938,198.36044 C117.296886,201.147018 93.0819255,186.222234 82.9095719,163.216409 C83.0883841,162.591068 83.2819828,161.970875 83.4807395,161.353771 L91.5042513,156.101867 L86.6952335,153.419627 L61.0999796,139.144553 L55.4618919,136 L45,176.345483 L55.1211171,172.80726 L55.1211171,172.80726 L55.1211171,172.80726 L55.1211171,172.80726 Z M55.1211171,172.80726" id="Shape" fill="#E1DFD1"></path>
            </g>
        </g>
    </g>
</svg>